<svg width="32" height="32" viewBox="0 0 32 32" fill="none" xmlns="http://www.w3.org/2000/svg">
    <path d="M24.1311 32H7.86891C3.52331 32 0 28.4768 0 24.1303V7.86864C0 3.52319 3.52331 0 7.86891 0H24.1311C28.4767 0 32 3.52319 32 7.86864V24.1303C32.0011 28.4768 28.4778 32 24.1311 32Z" fill="black"/>
    <path d="M13.724 13.9947V13.1801C13.4413 13.1354 13.1558 13.1109 12.8696 13.1069C10.0988 13.1014 7.64654 14.8964 6.8143 17.5385C5.98206 20.1805 6.96427 23.0577 9.23789 24.6398C6.85226 22.0866 6.98834 18.0828 9.54153 15.6972C10.6792 14.6351 12.1681 14.0291 13.724 13.9947Z" fill="#25F4EE"/>
    <path d="M13.8778 23.2189C15.4265 23.217 16.6994 21.9969 16.7679 20.449V6.63977H19.2906C19.239 6.35139 19.2145 6.05881 19.2174 5.76587H15.7672V19.5613C15.7098 21.1165 14.4332 22.3487 12.877 22.3514C12.4123 22.3477 11.9541 22.2329 11.5421 22.0182C11.8092 22.3882 12.1601 22.6899 12.566 22.8986C12.9719 23.1072 13.4214 23.217 13.8778 23.2189ZM24.0016 11.3249V10.5575C23.0731 10.5575 22.165 10.2835 21.392 9.7697C22.0696 10.5581 22.9858 11.1041 24.0016 11.3249Z" fill="#25F4EE"/>
    <path d="M21.3929 9.77088C20.6308 8.90346 20.2109 7.78814 20.2116 6.63354H19.2905C19.4091 7.27199 19.6567 7.87952 20.0182 8.41897C20.3797 8.95841 20.8475 9.41843 21.3929 9.77088ZM12.8696 16.5584C11.2699 16.5667 9.97941 17.8702 9.98774 19.4699C9.99039 19.995 10.1357 20.5095 10.4082 20.9584C10.6807 21.4073 11.07 21.7737 11.5347 22.0184C10.5987 20.7261 10.8876 18.919 12.1799 17.9822C12.6737 17.6245 13.268 17.4324 13.8777 17.4332C14.1675 17.4369 14.4554 17.4823 14.7322 17.5675V14.0561C14.4498 14.0135 14.1638 13.9913 13.8777 13.9895H13.724V16.6593C13.4454 16.5834 13.1575 16.5501 12.8696 16.5584Z" fill="#FE2C55"/>
    <path d="M24.0016 11.3252V13.995C22.2828 13.9917 20.6087 13.4476 19.2164 12.4398V19.4541C19.209 22.9543 16.3698 25.788 12.8696 25.788C11.5696 25.7905 10.301 25.3894 9.2388 24.6401C11.6207 27.2016 15.6283 27.3479 18.1907 24.966C18.8282 24.3734 19.3366 23.6559 19.6843 22.858C20.032 22.0602 20.2115 21.1992 20.2116 20.3289V13.3341C21.6087 14.3348 23.2847 14.8716 25.0032 14.8689V11.4326C24.6663 11.4307 24.3311 11.3956 24.0016 11.3252Z" fill="#FE2C55"/>
    <path d="M19.2164 19.455V12.4407C20.6131 13.4422 22.2894 13.9792 24.008 13.9756V11.3058C22.9927 11.0911 22.0746 10.5525 21.3919 9.77088C20.8467 9.41814 20.3792 8.95804 20.0177 8.41865C19.6563 7.87925 19.4085 7.27186 19.2895 6.63354H16.7669V20.4493C16.7012 22.048 15.3533 23.2904 13.7545 23.2256C13.3171 23.2078 12.8895 23.0912 12.5037 22.8843C12.1179 22.6775 11.784 22.3858 11.5272 22.0314C10.1117 21.2862 9.56833 19.5347 10.3136 18.1192C10.5581 17.6545 10.9245 17.265 11.3734 16.9925C11.8224 16.72 12.337 16.5747 12.8621 16.5723C13.1519 16.5751 13.4398 16.6195 13.7166 16.7056V13.996C10.2228 14.0552 7.4382 16.9759 7.49745 20.4697C7.52425 22.0518 8.14288 23.5665 9.23136 24.7151C10.304 25.4397 11.5744 25.8151 12.8686 25.7899C16.3697 25.789 19.209 22.9553 19.2164 19.455Z" fill="white"/>
</svg>